<svg width="68" height="73" viewBox="0 0 68 73" fill="none" xmlns="http://www.w3.org/2000/svg">
<path d="M14.875 0C15.4386 0 15.9791 0.240345 16.3776 0.668163C16.7761 1.09598 17 1.67622 17 2.28125V4.5625H51V2.28125C51 1.67622 51.2239 1.09598 51.6224 0.668163C52.0209 0.240345 52.5614 0 53.125 0C53.6886 0 54.2291 0.240345 54.6276 0.668163C55.0261 1.09598 55.25 1.67622 55.25 2.28125V4.5625H59.5C61.7543 4.5625 63.9163 5.52388 65.5104 7.23515C67.1045 8.94642 68 11.2674 68 13.6875V63.875C68 66.2951 67.1045 68.6161 65.5104 70.3273C63.9163 72.0386 61.7543 73 59.5 73H8.5C6.24566 73 4.08365 72.0386 2.48959 70.3273C0.895533 68.6161 0 66.2951 0 63.875V13.6875C0 11.2674 0.895533 8.94642 2.48959 7.23515C4.08365 5.52388 6.24566 4.5625 8.5 4.5625H12.75V2.28125C12.75 1.67622 12.9739 1.09598 13.3724 0.668163C13.7709 0.240345 14.3114 0 14.875 0ZM4.25 18.25V63.875C4.25 65.0851 4.69777 66.2455 5.4948 67.1012C6.29183 67.9568 7.37283 68.4375 8.5 68.4375H59.5C60.6272 68.4375 61.7082 67.9568 62.5052 67.1012C63.3022 66.2455 63.75 65.0851 63.75 63.875V18.25H4.25Z" fill="#4B2A63"/>
<path d="M31.9817 36.544H23.5577V42.016C23.9257 41.504 24.4697 41.088 25.1897 40.768C25.9097 40.432 26.6857 40.264 27.5177 40.264C28.8457 40.264 29.9257 40.544 30.7577 41.104C31.5897 41.648 32.1817 42.36 32.5337 43.24C32.9017 44.104 33.0857 45.024 33.0857 46C33.0857 47.152 32.8697 48.184 32.4377 49.096C32.0057 50.008 31.3417 50.728 30.4457 51.256C29.5657 51.784 28.4697 52.048 27.1577 52.048C25.4777 52.048 24.1177 51.616 23.0777 50.752C22.0377 49.888 21.4057 48.736 21.1817 47.296H23.3177C23.5257 48.208 23.9657 48.92 24.6377 49.432C25.3097 49.944 26.1577 50.2 27.1817 50.2C28.4457 50.2 29.3977 49.824 30.0377 49.072C30.6777 48.304 30.9977 47.296 30.9977 46.048C30.9977 44.8 30.6777 43.84 30.0377 43.168C29.3977 42.48 28.4537 42.136 27.2057 42.136C26.3577 42.136 25.6137 42.344 24.9737 42.76C24.3497 43.16 23.8937 43.712 23.6057 44.416H21.5417V34.624H31.9817V36.544ZM35.988 43.144C35.988 40.392 36.436 38.248 37.332 36.712C38.228 35.16 39.796 34.384 42.036 34.384C44.26 34.384 45.82 35.16 46.716 36.712C47.612 38.248 48.06 40.392 48.06 43.144C48.06 45.944 47.612 48.12 46.716 49.672C45.82 51.224 44.26 52 42.036 52C39.796 52 38.228 51.224 37.332 49.672C36.436 48.12 35.988 45.944 35.988 43.144ZM45.9 43.144C45.9 41.752 45.804 40.576 45.612 39.616C45.436 38.64 45.06 37.856 44.484 37.264C43.924 36.672 43.108 36.376 42.036 36.376C40.948 36.376 40.116 36.672 39.54 37.264C38.98 37.856 38.604 38.64 38.412 39.616C38.236 40.576 38.148 41.752 38.148 43.144C38.148 44.584 38.236 45.792 38.412 46.768C38.604 47.744 38.98 48.528 39.54 49.12C40.116 49.712 40.948 50.008 42.036 50.008C43.108 50.008 43.924 49.712 44.484 49.12C45.06 48.528 45.436 47.744 45.612 46.768C45.804 45.792 45.9 44.584 45.9 43.144Z" fill="#4B2A63"/>
</svg>
